<svg version="1.1" xmlns="http://www.w3.org/2000/svg" xmlns:xlink="http://www.w3.org/1999/xlink" width="739" height="426" viewBox="0,0,739,426"><defs><linearGradient x1="320" y1="-33" x2="320" y2="393" gradientUnits="userSpaceOnUse" id="color-1"><stop offset="0" stop-color="#65c4ca"/><stop offset="1" stop-color="#65a5c9"/></linearGradient></defs><g transform="translate(49.5,33)"><g stroke-miterlimit="10"><path d="M-49.5,393v-426h739v426z" fill="url(#color-1)" stroke="none" stroke-width="0"/><path d="M287.58208,321.48522c-1.86406,-0.9135 -2.47746,-3.48589 -1.37006,-5.74561l33.58573,-68.53351c1.1074,-2.2597 3.51624,-3.351 5.3803,-2.4375l67.50374,33.08106c1.86406,0.9135 2.47746,3.48589 1.37006,5.74561l-33.58573,68.53351c-1.1074,2.2597 -3.51624,3.351 -5.3803,2.4375z" fill="#0300ab" stroke="#ffffff" stroke-width="2"/><path d="M199.50928,244.86324c-2.01709,0.49046 -4.13426,-1.09416 -4.72883,-3.53937l-18.03245,-74.15979c-0.59457,-2.44521 0.55862,-4.82505 2.57571,-5.31553l73.04547,-17.76148c2.01709,-0.49046 4.13426,1.09416 4.72883,3.53937l18.03245,74.15979c0.59457,2.44521 -0.55862,4.82505 -2.57571,5.31553z" fill="#00ab60" stroke="#ffffff" stroke-width="2"/><path d="M345.87946,164.26148c-2.03606,-0.40456 -3.28905,-2.73339 -2.79863,-5.2016l14.87392,-74.85727c0.49043,-2.46822 2.53855,-4.14113 4.57462,-3.73658l73.73247,14.65043c2.03606,0.40456 3.28905,2.73339 2.79863,5.2016l-14.87392,74.85727c-0.49043,2.46822 -2.53855,4.14113 -4.57462,3.73658z" fill="#a900ab" stroke="#ffffff" stroke-width="2"/><path d="M98.00002,341.00001c-2.20914,0 -4,-1.79086 -4,-4v-41.5c0,-2.20914 1.79086,-4 4,-4h455.5c2.20914,0 4,1.79086 4,4v41.5c0,2.20914 -1.79086,4 -4,4z" fill="#6d6d6d" stroke="none" stroke-width="0"/><text transform="translate(174.16667,55.83334) scale(1.28007,1.28007)" font-size="40" xml:space="preserve" fill="#ffffff" stroke="none" stroke-width="1" font-family="Playful" font-weight="normal" text-anchor="start"><tspan x="0" dy="0">Game Over!</tspan></text><text transform="translate(97.9414,327.48645) scale(1.04796,1.04796)" font-size="40" xml:space="preserve" fill="#ffffff" stroke="none" stroke-width="1" font-family="Playful" font-weight="normal" text-anchor="start"><tspan x="0" dy="0">Click to Return to Menu</tspan></text><text transform="translate(471.00002,130.93036) scale(0.97645,0.97645)" font-size="40" xml:space="preserve" fill="#ffffff" stroke="none" stroke-width="1" font-family="Playful" font-weight="normal" text-anchor="start"><tspan x="0" dy="0">Score:</tspan></text></g></g></svg>